<svg width="879" height="295" viewBox="0 0 879 295" fill="none" xmlns="http://www.w3.org/2000/svg">
<g clip-path="url(#clip0_1_14)">
<rect width="879" height="295" fill="white"/>
<path d="M272.267 159.841V257H240.413V38.8182H271.841V119.997H273.865C277.7 111.19 283.56 104.195 291.443 99.0099C299.327 93.8253 309.625 91.233 322.338 91.233C333.56 91.233 343.361 93.5412 351.741 98.1577C360.193 102.774 366.727 109.663 371.344 118.825C376.031 127.916 378.375 139.28 378.375 152.916V257H346.521V156.751C346.521 144.749 343.432 135.445 337.253 128.839C331.074 122.163 322.48 118.825 311.472 118.825C303.943 118.825 297.196 120.423 291.23 123.619C285.335 126.815 280.683 131.503 277.274 137.682C273.936 143.79 272.267 151.176 272.267 159.841ZM467.408 260.303C451.286 260.303 437.401 256.858 425.753 249.969C414.176 243.009 405.227 233.243 398.906 220.672C392.656 208.03 389.531 193.222 389.531 176.247C389.531 159.486 392.656 144.713 398.906 131.929C405.227 119.145 414.034 109.166 425.327 101.993C436.69 94.8196 449.972 91.233 465.17 91.233C474.403 91.233 483.352 92.7599 492.017 95.8139C500.682 98.8679 508.459 103.662 515.348 110.196C522.237 116.73 527.67 125.217 531.648 135.658C535.625 146.027 537.614 158.634 537.614 173.477V184.77H407.536V160.906H506.399C506.399 152.526 504.695 145.104 501.286 138.641C497.876 132.107 493.082 126.957 486.903 123.193C480.795 119.429 473.622 117.547 465.384 117.547C456.435 117.547 448.622 119.749 441.946 124.152C435.341 128.484 430.227 134.166 426.605 141.197C423.054 148.158 421.278 155.722 421.278 163.889V182.533C421.278 193.47 423.196 202.774 427.031 210.445C430.938 218.115 436.371 223.974 443.331 228.023C450.291 232 458.423 233.989 467.727 233.989C473.764 233.989 479.268 233.136 484.24 231.432C489.212 229.656 493.509 227.028 497.131 223.548C500.753 220.068 503.523 215.771 505.44 210.658L535.589 216.091C533.175 224.969 528.842 232.746 522.592 239.422C516.413 246.027 508.636 251.176 499.261 254.869C489.957 258.491 479.339 260.303 467.408 260.303ZM578.253 201.496L578.04 162.611H583.58L648.779 93.3636H686.918L612.557 172.199H607.55L578.253 201.496ZM548.956 257V38.8182H580.81V257H548.956ZM652.294 257L593.701 179.23L615.647 156.964L691.392 257H652.294ZM739.569 260.622C729.2 260.622 719.825 258.705 711.444 254.869C703.064 250.963 696.423 245.317 691.522 237.93C686.693 230.544 684.278 221.489 684.278 210.764C684.278 201.531 686.054 193.932 689.605 187.966C693.156 182 697.95 177.277 703.987 173.797C710.024 170.317 716.771 167.689 724.228 165.913C731.686 164.138 739.285 162.788 747.027 161.865C756.828 160.729 764.782 159.805 770.89 159.095C776.998 158.314 781.437 157.071 784.207 155.366C786.977 153.662 788.362 150.892 788.362 147.057V146.311C788.362 137.007 785.734 129.798 780.478 124.685C775.294 119.571 767.552 117.014 757.254 117.014C746.529 117.014 738.078 119.393 731.899 124.152C725.791 128.839 721.565 134.06 719.221 139.812L689.285 132.994C692.836 123.051 698.021 115.026 704.839 108.918C711.728 102.739 719.647 98.2642 728.596 95.4943C737.545 92.6534 746.956 91.233 756.828 91.233C763.362 91.233 770.287 92.0142 777.602 93.5767C784.988 95.0682 791.877 97.8381 798.27 101.886C804.733 105.935 810.024 111.723 814.143 119.251C818.262 126.709 820.322 136.403 820.322 148.335V257H789.214V234.628H787.936C785.876 238.747 782.787 242.795 778.667 246.773C774.548 250.75 769.257 254.053 762.794 256.68C756.331 259.308 748.589 260.622 739.569 260.622ZM746.494 235.054C755.301 235.054 762.829 233.314 769.079 229.834C775.4 226.354 780.194 221.808 783.461 216.197C786.799 210.516 788.468 204.443 788.468 197.98V176.886C787.332 178.023 785.13 179.088 781.863 180.082C778.667 181.006 775.01 181.822 770.89 182.533C766.771 183.172 762.758 183.776 758.852 184.344C754.946 184.841 751.679 185.267 749.051 185.622C742.872 186.403 737.225 187.717 732.112 189.564C727.069 191.411 723.021 194.074 719.967 197.554C716.984 200.963 715.493 205.509 715.493 211.19C715.493 219.074 718.404 225.04 724.228 229.088C730.052 233.065 737.474 235.054 746.494 235.054Z" fill="#B4B4B4"/>
<path d="M142.069 14.0034L142.068 14.0034C99.9936 14.4117 63.0037 45.0394 63 91.884V91.8841C63 132.412 86.707 172.254 122.847 215.583L65.1426 211.457L63 211.304L63 213.452L63 238.5V240.777L65.2576 240.483L128.69 232.245L125.424 276.924L125.267 279.07H127.419H157.151H159.378L159.139 276.856L154.322 232.25L218.919 240.484L221.172 240.771V238.5V213.452V211.318L219.042 211.456L161.657 215.193C177.226 196.296 191.664 176.461 202.415 156.429C213.842 135.139 221.172 113.503 221.172 92.453C221.172 45.0169 183.765 13.6236 142.069 14.0034ZM86.1663 94.5312C86.1663 60.7362 113.277 38.5741 142.992 38.6373C172.634 38.7004 198.206 60.4822 198.206 94.6144C198.206 107.66 192.944 126.54 182.864 146.113C173.041 165.186 158.739 184.728 140.586 199.958C104.158 166.875 86.1663 129.927 86.1663 94.5312Z" fill="#736700" stroke="#736700" stroke-width="4"/>
</g>
<defs>
<clipPath id="clip0_1_14">
<rect width="879" height="295" fill="white"/>
</clipPath>
</defs>
</svg>
