<svg xmlns="http://www.w3.org/2000/svg" width="979" height="363" fill="none"><path fill="#B4B4B4" d="M291.092 132.797c-.994-9.304-5.184-16.548-12.571-21.733-7.315-5.185-16.832-7.777-28.551-7.777-8.238 0-15.305 1.243-21.2 3.729-5.895 2.485-10.405 5.859-13.53 10.12-3.125 4.262-4.723 9.127-4.794 14.596 0 4.545 1.03 8.487 3.09 11.825 2.13 3.338 5.007 6.179 8.629 8.523 3.622 2.272 7.635 4.19 12.038 5.752a129.281 129.281 0 0 0 13.317 3.942l20.454 5.114a140.851 140.851 0 0 1 23.758 7.777c7.67 3.267 14.524 7.386 20.561 12.358 6.108 4.971 10.937 10.973 14.488 18.004 3.551 7.031 5.327 15.27 5.327 24.716 0 12.784-3.267 24.041-9.801 33.771-6.534 9.659-15.98 17.223-28.338 22.692-12.287 5.398-27.166 8.097-44.638 8.097-16.974 0-31.712-2.628-44.212-7.884-12.429-5.256-22.159-12.926-29.19-23.011-6.96-10.086-10.724-22.372-11.293-36.861h38.885c.568 7.599 2.912 13.92 7.032 18.963 4.119 5.043 9.481 8.807 16.086 11.293 6.676 2.485 14.134 3.728 22.372 3.728 8.594 0 16.123-1.278 22.586-3.835 6.534-2.628 11.647-6.25 15.341-10.866 3.693-4.688 5.575-10.157 5.646-16.407-.071-5.682-1.74-10.369-5.007-14.062-3.267-3.764-7.848-6.889-13.743-9.375-5.824-2.557-12.642-4.83-20.455-6.818l-24.822-6.392c-17.969-4.617-32.173-11.613-42.614-20.988-10.369-9.446-15.554-21.981-15.554-37.606 0-12.855 3.48-24.112 10.441-33.771 7.031-9.66 16.583-17.153 28.657-22.48 12.074-5.397 25.746-8.096 41.016-8.096 15.483 0 29.048 2.7 40.696 8.097 11.719 5.326 20.916 12.748 27.592 22.265 6.676 9.446 10.121 20.313 10.334 32.6h-38.033Zm122.991 161.399c-16.407 0-30.576-3.409-42.507-10.227-11.861-6.889-20.988-16.62-27.38-29.191-6.392-12.642-9.588-27.521-9.588-44.637 0-16.833 3.196-31.605 9.588-44.319 6.463-12.784 15.483-22.727 27.06-29.829 11.577-7.173 25.178-10.76 40.803-10.76 10.085 0 19.602 1.633 28.551 4.901 9.02 3.196 16.974 8.167 23.863 14.914 6.961 6.747 12.429 15.341 16.407 25.782 3.977 10.369 5.966 22.727 5.966 37.073v11.826H352.719v-25.995h97.159c-.071-7.386-1.669-13.956-4.794-19.708-3.125-5.824-7.493-10.405-13.104-13.743-5.539-3.338-12.002-5.007-19.389-5.007-7.883 0-14.808 1.917-20.774 5.752-5.966 3.765-10.618 8.736-13.956 14.915-3.267 6.108-4.936 12.82-5.007 20.135v22.692c0 9.517 1.74 17.685 5.22 24.503 3.48 6.747 8.345 11.932 14.595 15.554 6.25 3.551 13.566 5.326 21.946 5.326 5.611 0 10.689-.781 15.235-2.343 4.545-1.634 8.487-4.013 11.825-7.138 3.338-3.125 5.859-6.996 7.564-11.612l36.009 4.048c-2.273 9.517-6.606 17.827-12.998 24.929-6.321 7.031-14.417 12.5-24.289 16.406-9.873 3.835-21.165 5.753-33.878 5.753ZM495.472 291V127.364h37.393v27.272h1.705c2.983-9.446 8.096-16.725 15.341-21.839 7.315-5.185 15.66-7.777 25.035-7.777 2.131 0 4.51.106 7.138.319 2.699.143 4.936.391 6.711.746v35.476c-1.633-.568-4.225-1.065-7.777-1.491a71.426 71.426 0 0 0-10.12-.746c-7.032 0-13.353 1.527-18.963 4.581-5.54 2.983-9.908 7.138-13.104 12.464-3.196 5.327-4.794 11.47-4.794 18.431V291h-38.565Zm130.101-51.349-.106-46.556h6.179l58.806-65.731h45.064l-72.336 80.539h-7.99l-29.617 31.748ZM590.417 291V72.818h38.565V291h-38.565Zm102.699 0-53.267-74.467 25.994-27.167L739.245 291h-46.129Zm109.807 3.196c-16.407 0-30.576-3.409-42.508-10.227-11.86-6.889-20.987-16.62-27.379-29.191-6.392-12.642-9.588-27.521-9.588-44.637 0-16.833 3.196-31.605 9.588-44.319 6.463-12.784 15.483-22.727 27.06-29.829 11.577-7.173 25.177-10.76 40.802-10.76 10.086 0 19.603 1.633 28.552 4.901 9.019 3.196 16.974 8.167 23.863 14.914 6.96 6.747 12.429 15.341 16.406 25.782 3.978 10.369 5.966 22.727 5.966 37.073v11.826H741.559v-25.995h97.159c-.071-7.386-1.669-13.956-4.794-19.708-3.125-5.824-7.493-10.405-13.104-13.743-5.539-3.338-12.003-5.007-19.389-5.007-7.883 0-14.808 1.917-20.774 5.752-5.966 3.765-10.618 8.736-13.956 14.915-3.267 6.108-4.936 12.82-5.007 20.135v22.692c0 9.517 1.74 17.685 5.22 24.503 3.48 6.747 8.345 11.932 14.595 15.554 6.25 3.551 13.566 5.326 21.946 5.326 5.611 0 10.689-.781 15.235-2.343 4.545-1.634 8.487-4.013 11.825-7.138 3.338-3.125 5.859-6.996 7.564-11.612l36.008 4.048c-2.272 9.517-6.605 17.827-12.997 24.929-6.321 7.031-14.417 12.5-24.29 16.406-9.872 3.835-21.164 5.753-33.877 5.753Zm163.1-166.832v29.829h-94.07v-29.829h94.07Zm-70.845-39.205h38.565v153.622c0 5.185.782 9.162 2.344 11.932 1.634 2.699 3.764 4.546 6.392 5.54 2.628.994 5.54 1.491 8.736 1.491 2.415 0 4.616-.177 6.605-.532 2.06-.355 3.622-.675 4.687-.959l6.499 30.149c-2.06.71-5.007 1.491-8.842 2.344-3.764.852-8.381 1.349-13.85 1.491-9.659.284-18.359-1.172-26.101-4.368-7.741-3.267-13.885-8.309-18.43-15.128-4.474-6.818-6.676-15.34-6.605-25.568V88.159Z"/><path fill="#736700" stroke="#736700" stroke-width="8" d="M79.464 52.003h-.002C39.294 52.406 4.003 82.633 4 128.666c0 38.368 21.075 75.873 52.985 116.018l-48.69-3.594L4 240.773v32.864l4.532-.607 56.222-7.539-2.848 40.226-.304 4.283h36.311l-.462-4.416-4.193-40.083 57.22 7.53 4.522.595v-32.825l-4.268.287-48.475 3.259c13.376-17.049 25.735-34.89 35.115-52.933C148.057 170.861 155 149.812 155 129.211c0-46.56-35.647-77.583-75.536-77.208Zm-49.686 79.198c0-31.188 24.16-51.497 50.558-51.439 26.273.058 49.073 19.944 49.073 51.519 0 12.066-4.748 29.826-14.016 48.406-8.745 17.531-21.342 35.441-37.23 49.613-32.507-31.031-48.385-65.375-48.385-98.099Z"/></svg>