<svg width="879" height="295" viewBox="0 0 879 295" fill="none" xmlns="http://www.w3.org/2000/svg">
<g clip-path="url(#clip0_1_14)">
<rect width="879" height="295" fill="white"/>
<path d="M432.034 133.314L403.163 138.428C401.956 134.734 400.038 131.219 397.411 127.881C394.854 124.543 391.374 121.808 386.97 119.678C382.567 117.547 377.063 116.482 370.457 116.482C361.438 116.482 353.909 118.506 347.872 122.554C341.835 126.531 338.817 131.68 338.817 138.001C338.817 143.47 340.841 147.874 344.889 151.212C348.938 154.55 355.472 157.284 364.491 159.415L390.486 165.381C405.543 168.861 416.764 174.223 424.151 181.467C431.537 188.712 435.23 198.122 435.23 209.699C435.23 219.5 432.389 228.236 426.707 235.906C421.097 243.506 413.249 249.472 403.163 253.804C393.149 258.136 381.537 260.303 368.327 260.303C350.003 260.303 335.053 256.396 323.476 248.584C311.899 240.7 304.797 229.514 302.169 215.026L332.957 210.338C334.875 218.364 338.817 224.436 344.783 228.555C350.749 232.604 358.526 234.628 368.114 234.628C378.554 234.628 386.899 232.462 393.149 228.129C399.399 223.726 402.524 218.364 402.524 212.043C402.524 206.929 400.607 202.632 396.771 199.152C393.007 195.672 387.219 193.044 379.406 191.268L351.707 185.196C336.438 181.716 325.145 176.176 317.83 168.577C310.585 160.977 306.963 151.354 306.963 139.706C306.963 130.047 309.662 121.595 315.06 114.351C320.457 107.107 327.915 101.46 337.432 97.4119C346.949 93.2926 357.851 91.233 370.138 91.233C387.822 91.233 401.743 95.0682 411.899 102.739C422.055 110.338 428.767 120.53 432.034 133.314ZM446.253 257V93.3636H478.107V257H446.253ZM462.34 68.1151C456.8 68.1151 452.042 66.2685 448.064 62.5753C444.158 58.8111 442.205 54.3366 442.205 49.152C442.205 43.8963 444.158 39.4219 448.064 35.7287C452.042 31.9645 456.8 30.0824 462.34 30.0824C467.88 30.0824 472.603 31.9645 476.509 35.7287C480.486 39.4219 482.475 43.8963 482.475 49.152C482.475 54.3366 480.486 58.8111 476.509 62.5753C472.603 66.2685 467.88 68.1151 462.34 68.1151ZM496.96 257V93.3636H527.749V119.358H529.453C532.436 110.551 537.692 103.626 545.22 98.5838C552.82 93.4702 561.413 90.9133 571.001 90.9133C572.99 90.9133 575.334 90.9844 578.033 91.1264C580.803 91.2685 582.969 91.446 584.531 91.6591V122.128C583.253 121.773 580.98 121.382 577.713 120.956C574.446 120.459 571.179 120.21 567.912 120.21C560.384 120.21 553.672 121.808 547.777 125.004C541.953 128.129 537.337 132.497 533.928 138.108C530.518 143.648 528.814 149.969 528.814 157.071V257H496.96ZM588.097 257V93.3636H619.951V257H588.097ZM604.184 68.1151C598.644 68.1151 593.885 66.2685 589.908 62.5753C586.002 58.8111 584.049 54.3366 584.049 49.152C584.049 43.8963 586.002 39.4219 589.908 35.7287C593.885 31.9645 598.644 30.0824 604.184 30.0824C609.723 30.0824 614.446 31.9645 618.353 35.7287C622.33 39.4219 624.319 43.8963 624.319 49.152C624.319 54.3366 622.33 58.8111 618.353 62.5753C614.446 66.2685 609.723 68.1151 604.184 68.1151ZM761.425 133.314L732.554 138.428C731.347 134.734 729.429 131.219 726.801 127.881C724.244 124.543 720.764 121.808 716.361 119.678C711.957 117.547 706.453 116.482 699.848 116.482C690.828 116.482 683.3 118.506 677.263 122.554C671.226 126.531 668.207 131.68 668.207 138.001C668.207 143.47 670.232 147.874 674.28 151.212C678.328 154.55 684.862 157.284 693.882 159.415L719.876 165.381C734.933 168.861 746.155 174.223 753.541 181.467C760.928 188.712 764.621 198.122 764.621 209.699C764.621 219.5 761.78 228.236 756.098 235.906C750.487 243.506 742.639 249.472 732.554 253.804C722.54 258.136 710.928 260.303 697.717 260.303C679.393 260.303 664.443 256.396 652.866 248.584C641.29 240.7 634.188 229.514 631.56 215.026L662.348 210.338C664.266 218.364 668.207 224.436 674.173 228.555C680.139 232.604 687.916 234.628 697.504 234.628C707.945 234.628 716.29 232.462 722.54 228.129C728.79 223.726 731.915 218.364 731.915 212.043C731.915 206.929 729.997 202.632 726.162 199.152C722.398 195.672 716.609 193.044 708.797 191.268L681.098 185.196C665.828 181.716 654.536 176.176 647.22 168.577C639.976 160.977 636.354 151.354 636.354 139.706C636.354 130.047 639.053 121.595 644.45 114.351C649.848 107.107 657.305 101.46 666.822 97.4119C676.339 93.2926 687.241 91.233 699.528 91.233C717.213 91.233 731.134 95.0682 741.29 102.739C751.446 110.338 758.158 120.53 761.425 133.314Z" fill="#B4B4B4"/>
<path d="M215.661 14.0034L215.66 14.0034C173.585 14.4117 136.595 45.0394 136.591 91.884V91.8841C136.591 132.412 160.298 172.254 196.439 215.583L138.734 211.457L136.591 211.304L136.591 213.452L136.591 238.5V240.777L138.849 240.483L202.281 232.245L199.015 276.924L198.858 279.07H201.01H230.742H232.97L232.73 276.856L227.913 232.25L292.51 240.484L294.763 240.771V238.5V213.452V211.318L292.633 211.456L235.249 215.193C250.818 196.296 265.255 176.461 276.006 156.429C287.433 135.139 294.763 113.503 294.763 92.453C294.763 45.0169 257.356 13.6236 215.661 14.0034ZM159.758 94.5312C159.758 60.7362 186.868 38.5741 216.584 38.6373C246.225 38.7004 271.797 60.4822 271.797 94.6144C271.797 107.66 266.535 126.54 256.455 146.113C246.633 165.186 232.331 184.728 214.177 199.958C177.749 166.875 159.758 129.927 159.758 94.5312Z" fill="#736700" stroke="#736700" stroke-width="4"/>
</g>
<defs>
<clipPath id="clip0_1_14">
<rect width="879" height="295" fill="white"/>
</clipPath>
</defs>
</svg>
