<svg width="159" height="266" viewBox="0 0 159 266" fill="none" xmlns="http://www.w3.org/2000/svg">
<path d="M79.464 4.00336L79.4616 4.00339C39.2944 4.40576 4.00348 34.6333 4 80.6661V80.6664C4 119.034 25.075 156.539 56.9853 196.684L8.29445 193.09L4 192.773L4 197.079L4 221.065V225.637L8.5316 225.03L64.7539 217.491L61.9056 257.717L61.6024 262H65.8956H93.4731H97.9134L97.4514 257.584L93.2584 217.501L150.478 225.031L155 225.626V221.065V197.079V192.801L150.732 193.088L102.257 196.347C115.633 179.298 127.992 161.457 137.372 143.414C148.057 122.861 155 101.812 155 81.2111C155 34.6507 119.353 3.62826 79.464 4.00336ZM29.7775 83.2012C29.7775 52.013 53.9374 31.7042 80.336 31.7622C106.609 31.82 129.409 51.7064 129.409 83.2809C129.409 95.3469 124.661 113.107 115.393 131.687C106.648 149.218 94.0508 167.128 78.1626 181.3C45.6561 150.269 29.7775 115.925 29.7775 83.2012Z" fill="#736700" stroke="#736700" stroke-width="8"/>
</svg>
