<svg width="498" height="363" viewBox="0 0 498 363" fill="none" xmlns="http://www.w3.org/2000/svg">
<path d="M291.092 132.797C290.098 123.493 285.908 116.249 278.521 111.064C271.206 105.879 261.689 103.287 249.97 103.287C241.732 103.287 234.665 104.53 228.77 107.016C222.875 109.501 218.365 112.875 215.24 117.136C212.115 121.398 210.517 126.263 210.446 131.732C210.446 136.277 211.476 140.219 213.536 143.557C215.666 146.895 218.543 149.736 222.165 152.08C225.787 154.352 229.8 156.27 234.203 157.832C238.607 159.395 243.045 160.709 247.52 161.774L267.974 166.888C276.213 168.805 284.132 171.398 291.732 174.665C299.402 177.932 306.256 182.051 312.293 187.023C318.401 191.994 323.23 197.996 326.781 205.027C330.332 212.058 332.108 220.297 332.108 229.743C332.108 242.527 328.841 253.784 322.307 263.514C315.773 273.173 306.327 280.737 293.969 286.206C281.682 291.604 266.803 294.303 249.331 294.303C232.357 294.303 217.619 291.675 205.119 286.419C192.69 281.163 182.96 273.493 175.929 263.408C168.969 253.322 165.205 241.036 164.636 226.547H203.521C204.089 234.146 206.433 240.467 210.553 245.51C214.672 250.553 220.034 254.317 226.639 256.803C233.315 259.288 240.773 260.531 249.011 260.531C257.605 260.531 265.134 259.253 271.597 256.696C278.131 254.068 283.244 250.446 286.938 245.83C290.631 241.142 292.513 235.673 292.584 229.423C292.513 223.741 290.844 219.054 287.577 215.361C284.31 211.597 279.729 208.472 273.834 205.986C268.01 203.429 261.192 201.156 253.379 199.168L228.557 192.776C210.588 188.159 196.384 181.163 185.943 171.788C175.574 162.342 170.389 149.807 170.389 134.182C170.389 121.327 173.869 110.07 180.83 100.411C187.861 90.7514 197.413 83.2585 209.487 77.9318C221.561 72.5341 235.233 69.8352 250.503 69.8352C265.986 69.8352 279.551 72.5341 291.199 77.9318C302.918 83.2585 312.115 90.6804 318.791 100.197C325.467 109.643 328.912 120.51 329.125 132.797H291.092ZM381.296 239.651L381.189 193.095H387.368L446.175 127.364H491.239L418.902 207.903H410.912L381.296 239.651ZM346.14 291V72.8182H384.705V291H346.14ZM448.838 291L395.571 216.533L421.566 189.366L494.968 291H448.838Z" fill="#B4B4B4"/>
<path d="M79.464 52.0034L79.4616 52.0034C39.2944 52.4058 4.00348 82.6333 4 128.666V128.666C4 167.034 25.075 204.539 56.9853 244.684L8.29445 241.09L4 240.773L4 245.079L4 269.065V273.637L8.5316 273.03L64.7539 265.491L61.9056 305.717L61.6024 310H65.8956H93.4731H97.9134L97.4514 305.584L93.2584 265.501L150.478 273.031L155 273.626V269.065V245.079V240.801L150.732 241.088L102.257 244.347C115.633 227.298 127.992 209.457 137.372 191.414C148.057 170.861 155 149.812 155 129.211C155 82.6507 119.353 51.6283 79.464 52.0034ZM29.7775 131.201C29.7775 100.013 53.9374 79.7042 80.336 79.7622C106.609 79.82 129.409 99.7064 129.409 131.281C129.409 143.347 124.661 161.107 115.393 179.687C106.648 197.218 94.0508 215.128 78.1626 229.3C45.6561 198.269 29.7775 163.925 29.7775 131.201Z" fill="#736700" stroke="#736700" stroke-width="8"/>
</svg>
