<svg width="520" height="403" viewBox="0 0 520 403" fill="none" xmlns="http://www.w3.org/2000/svg">
<path d="M325.006 177.553L283.99 182.027C282.83 177.884 280.8 173.99 277.9 170.344C275.083 166.698 271.271 163.756 266.465 161.519C261.659 159.282 255.776 158.163 248.816 158.163C239.453 158.163 231.581 160.193 225.201 164.254C218.904 168.314 215.796 173.575 215.879 180.038C215.796 185.59 217.826 190.106 221.969 193.586C226.195 197.066 233.156 199.925 242.85 202.162L275.414 209.122C293.478 213.017 306.901 219.19 315.684 227.641C324.55 236.093 329.024 247.155 329.107 260.827C329.024 272.841 325.503 283.447 318.543 292.645C311.665 301.759 302.095 308.885 289.832 314.023C277.568 319.16 263.482 321.729 247.573 321.729C224.207 321.729 205.397 316.84 191.146 307.062C176.894 297.202 168.401 283.489 165.666 265.923L209.54 261.697C211.529 270.314 215.755 276.819 222.218 281.21C228.681 285.602 237.091 287.798 247.449 287.798C258.138 287.798 266.714 285.602 273.177 281.21C279.723 276.819 282.996 271.391 282.996 264.928C282.996 259.46 280.883 254.944 276.657 251.381C272.514 247.818 266.051 245.083 257.268 243.178L224.704 236.342C206.392 232.53 192.844 226.108 184.061 217.077C175.278 207.962 170.928 196.445 171.011 182.524C170.928 170.758 174.118 160.566 180.581 151.949C187.127 143.249 196.2 136.537 207.8 131.814C219.484 127.008 232.948 124.605 248.195 124.605C270.567 124.605 288.174 129.37 301.018 138.898C313.944 148.427 321.94 161.312 325.006 177.553ZM384.473 258.092L384.349 203.778H391.558L460.166 127.091H512.74L428.348 221.054H419.026L384.473 258.092ZM343.458 318V63.4545H388.451V318H343.458ZM463.273 318L401.128 231.121L431.455 199.428L517.091 318H463.273Z" fill="#B4B4B4"/>
<path d="M79.464 64.0034L79.4616 64.0034C39.2944 64.4058 4.00348 94.6333 4 140.666V140.666C4 179.034 25.075 216.539 56.9853 256.684L8.29445 253.09L4 252.773L4 257.079L4 281.065V285.637L8.5316 285.03L64.7539 277.491L61.9056 317.717L61.6024 322H65.8956H93.4731H97.9134L97.4514 317.584L93.2584 277.501L150.478 285.031L155 285.626V281.065V257.079V252.801L150.732 253.088L102.257 256.347C115.633 239.298 127.992 221.457 137.372 203.414C148.057 182.861 155 161.812 155 141.211C155 94.6507 119.353 63.6283 79.464 64.0034ZM29.7775 143.201C29.7775 112.013 53.9374 91.7042 80.336 91.7622C106.609 91.82 129.409 111.706 129.409 143.281C129.409 155.347 124.661 173.107 115.393 191.687C106.648 209.218 94.0508 227.128 78.1626 241.3C45.6561 210.269 29.7775 175.925 29.7775 143.201Z" fill="#736700" stroke="#736700" stroke-width="8"/>
</svg>
