<svg width="163" height="270" viewBox="0 0 163 270" fill="none" xmlns="http://www.w3.org/2000/svg">
<path d="M81.4546 5.00341L81.4516 5.00344C40.7785 5.41088 5.00352 36.0434 5 82.666V82.6664C5 120.813 25.6353 158.004 56.7876 197.519L10.3681 194.093L5 193.697V199.079L5 223.065V228.78L10.6645 228.021L65.6696 220.645L62.9081 259.647L62.5291 265H67.8956H95.4731H101.023L100.446 259.48L96.3849 220.658L152.348 228.022L158 228.766V223.065V199.079V193.732L152.665 194.091L106.423 197.2C119.292 180.655 131.165 163.369 140.259 145.875C150.985 125.243 158 104.031 158 83.2111C158 36.0785 121.883 4.62323 81.4546 5.00341ZM81.5016 9.99698L81.5016 10.0032L81.5016 9.99698ZM32.7775 85.2012C32.7775 54.6029 56.4509 34.7053 82.3338 34.7622C108.064 34.8188 130.409 54.2662 130.409 85.2809C130.409 97.1363 125.728 114.738 116.498 133.241C107.926 150.426 95.6376 167.963 80.1848 181.936C48.2755 151.213 32.7775 117.362 32.7775 85.2012Z" fill="#FFCC00"/>
<path d="M81.4546 5.00341L81.4516 5.00344C40.7785 5.41088 5.00352 36.0434 5 82.666V82.6664C5 120.813 25.6353 158.004 56.7876 197.519L10.3681 194.093L5 193.697V199.079L5 223.065V228.78L10.6645 228.021L65.6696 220.645L62.9081 259.647L62.5291 265H67.8956H95.4731H101.023L100.446 259.48L96.3849 220.658L152.348 228.022L158 228.766V223.065V199.079V193.732L152.665 194.091L106.423 197.2C119.292 180.655 131.165 163.369 140.259 145.875C150.985 125.243 158 104.031 158 83.2111C158 36.0785 121.883 4.62323 81.4546 5.00341ZM81.5016 9.99698L81.5016 10.0032L81.5016 9.99698ZM32.7775 85.2012C32.7775 54.6029 56.4509 34.7053 82.3338 34.7622C108.064 34.8188 130.409 54.2662 130.409 85.2809C130.409 97.1363 125.728 114.738 116.498 133.241C107.926 150.426 95.6376 167.963 80.1848 181.936C48.2755 151.213 32.7775 117.362 32.7775 85.2012Z" stroke="#736700" stroke-width="10"/>
<path d="M81.4546 5.00341L81.4516 5.00344C40.7785 5.41088 5.00352 36.0434 5 82.666V82.6664C5 120.813 25.6353 158.004 56.7876 197.519L10.3681 194.093L5 193.697V199.079L5 223.065V228.78L10.6645 228.021L65.6696 220.645L62.9081 259.647L62.5291 265H67.8956H95.4731H101.023L100.446 259.48L96.3849 220.658L152.348 228.022L158 228.766V223.065V199.079V193.732L152.665 194.091L106.423 197.2C119.292 180.655 131.165 163.369 140.259 145.875C150.985 125.243 158 104.031 158 83.2111C158 36.0785 121.883 4.62323 81.4546 5.00341ZM81.5016 9.99698L81.5016 10.0032L81.5016 9.99698ZM32.7775 85.2012C32.7775 54.6029 56.4509 34.7053 82.3338 34.7622C108.064 34.8188 130.409 54.2662 130.409 85.2809C130.409 97.1363 125.728 114.738 116.498 133.241C107.926 150.426 95.6376 167.963 80.1848 181.936C48.2755 151.213 32.7775 117.362 32.7775 85.2012Z" stroke="#AA8800" stroke-width="10"/>
</svg>
